HIERARCHY
ROOT Hips
{
	OFFSET 0.000000 0.000000 0.000000
	CHANNELS 6 Xposition Yposition Zposition Zrotation Yrotation Xrotation 
	JOINT LHipJoint
	{
		OFFSET 0.000000 0.000000 0.000000
		CHANNELS 3 Zrotation Yrotation Xrotation
		JOINT LeftUpLeg
		{
			OFFSET 1.363060 -1.794630 0.839290
			CHANNELS 3 Zrotation Yrotation Xrotation
			JOINT LeftLeg
			{
				OFFSET 2.448110 -6.726130 0.000000
				CHANNELS 3 Zrotation Yrotation Xrotation
				JOINT LeftFoot
				{
					OFFSET 2.562200 -7.039590 0.000000
					CHANNELS 3 Zrotation Yrotation Xrotation
					JOINT LeftToeBase
					{
						OFFSET 0.157640 -0.433110 2.322550
						CHANNELS 3 Zrotation Yrotation Xrotation
						End Site
						{
							OFFSET 0.000000 0.000000 0.000000
						}
					}
				}
			}
		}
	}
	JOINT RHipJoint
	{
		OFFSET 0.000000 0.000000 0.000000
		CHANNELS 3 Zrotation Yrotation Xrotation
		JOINT RightUpLeg
		{
			OFFSET -1.305520 -1.794630 0.839290
			CHANNELS 3 Zrotation Yrotation Xrotation
			JOINT RightLeg
			{
				OFFSET -2.542530 -6.985550 0.000000
				CHANNELS 3 Zrotation Yrotation Xrotation
				JOINT RightFoot
				{
					OFFSET -2.568260 -7.056230 0.000000
					CHANNELS 3 Zrotation Yrotation Xrotation
					JOINT RightToeBase
					{
						OFFSET -0.164730 -0.452590 2.363150
						CHANNELS 3 Zrotation Yrotation Xrotation
						End Site
						{
							OFFSET 0.000000 0.000000 0.000000
						}
					}
				}
			}
		}
	}
	JOINT LowerBack
	{
		OFFSET 0.000000 0.000000 0.000000
		CHANNELS 3 Zrotation Yrotation Xrotation
		JOINT Spine
		{
			OFFSET 0.028270 2.035590 -0.193380
			CHANNELS 3 Zrotation Yrotation Xrotation
			JOINT Spine1
			{
				OFFSET 0.056720 2.048850 -0.042750
				CHANNELS 3 Zrotation Yrotation Xrotation
				JOINT Neck
				{
					OFFSET 0.000000 0.000000 0.000000
					CHANNELS 3 Zrotation Yrotation Xrotation
					JOINT Neck1
					{
						OFFSET -0.054170 1.746240 0.172020
						CHANNELS 3 Zrotation Yrotation Xrotation
						JOINT Head
						{
							OFFSET 0.104070 1.761360 -0.123970
							CHANNELS 3 Zrotation Yrotation Xrotation
							End Site
							{
								OFFSET 0.000000 0.000000 0.000000
							}
						}
					}
				}
				JOINT LeftShoulder
				{
					OFFSET 0.000000 0.000000 0.000000
					CHANNELS 3 Zrotation Yrotation Xrotation
					JOINT LeftArm
					{
						OFFSET 3.362410 1.200890 -0.311210
						CHANNELS 3 Zrotation Yrotation Xrotation
						JOINT LeftForeArm
						{
							OFFSET 4.983000 -0.000000 -0.000000
							CHANNELS 3 Zrotation Yrotation Xrotation
							JOINT LeftHand
							{
								OFFSET 3.483560 -0.000000 -0.000000
								CHANNELS 3 Zrotation Yrotation Xrotation
								JOINT LeftFingerBase
								{
									OFFSET 0.000000 0.000000 0.000000
									CHANNELS 3 Zrotation Yrotation Xrotation
									JOINT LeftHandIndex1
									{
										OFFSET 0.715260 -0.000000 -0.000000
										CHANNELS 3 Zrotation Yrotation Xrotation
										End Site
										{
											OFFSET 0.000000 0.000000 0.000000
										}
									}
								}
								JOINT LThumb
								{
									OFFSET 0.000000 0.000000 0.000000
									CHANNELS 3 Zrotation Yrotation Xrotation
									End Site
									{
										OFFSET 0.000000 0.000000 0.000000
									}
								}
							}
						}
					}
				}
				JOINT RightShoulder
				{
					OFFSET 0.000000 0.000000 0.000000
					CHANNELS 3 Zrotation Yrotation Xrotation
					JOINT RightArm
					{
						OFFSET -3.136600 1.374050 -0.404650
						CHANNELS 3 Zrotation Yrotation Xrotation
						JOINT RightForeArm
						{
							OFFSET -5.241900 -0.000000 -0.000000
							CHANNELS 3 Zrotation Yrotation Xrotation
							JOINT RightHand
							{
								OFFSET -3.444170 -0.000000 -0.000000
								CHANNELS 3 Zrotation Yrotation Xrotation
								JOINT RightFingerBase
								{
									OFFSET 0.000000 0.000000 0.000000
									CHANNELS 3 Zrotation Yrotation Xrotation
									JOINT RightHandIndex1
									{
										OFFSET -0.622530 -0.000000 -0.000000
										CHANNELS 3 Zrotation Yrotation Xrotation
										End Site
										{
											OFFSET 0.000000 0.000000 0.000000
										}
									}
								}
								JOINT RThumb
								{
									OFFSET 0.000000 0.000000 0.000000
									CHANNELS 3 Zrotation Yrotation Xrotation
									End Site
									{
										OFFSET 0.000000 0.000000 0.000000
									}
								}
							}
						}
					}
				}
			}
		}
	}
}
MOTION
Frames: 10
Frame Time: 0.008333
-14.132257 17.827866 -0.772742 -94.907850 84.078366 -83.643864 0.667233 2.944475 0.439285 -13.533580 -7.581996 -10.204840 -0.151334 3.007435 10.662945 1.106466 -2.214462 -10.303873 2.830200 10.415000 30.331400 -4.733784 -4.960332 -0.093972 27.418398 10.603536 -19.418944 -1.723652 -7.374813 24.015323 0.364018 -6.528261 -12.458407 -0.176400 2.705300 -7.459400 6.770118 2.005268 -0.156488 0.900167 2.544816 -2.878473 -6.601240 1.143545 3.651741 0.030860 -2.863427 -16.019065 4.222764 -4.085245 8.918422 -0.396100 -1.863600 4.666900 -6.843441 -13.711191 2.414288 -72.135875 -11.751984 38.884383 22.198681 -30.057924 -9.576459 -3.054354 -1.077592 -15.467762 34.300846 44.114419 27.334300 -7.125000 0.000000 0.000000 0.570100 78.955500 0.450300 2.865580 13.250343 2.189284 85.715691 -0.796569 17.872593 -29.255243 40.396570 -9.768429 -0.512543 -2.918375 20.048588 -22.006608 5.365899 -3.510000 7.125000 0.000000 0.000000 3.101100 -20.810600 1.799600 
-13.998593 17.865561 -0.739937 -66.134910 83.105296 -53.130276 0.688741 3.486787 0.675165 -13.238559 -6.139449 -11.610673 -0.326101 2.830002 9.599143 0.640435 -0.165114 -10.020908 2.389800 9.634700 27.801700 -4.886829 -4.250365 -0.416881 28.153666 12.914719 -18.838545 -1.494737 -6.568100 22.008454 0.344226 -5.995134 -11.507581 -0.116300 2.198900 -6.055600 7.078460 3.443942 -3.234761 0.673191 4.023771 -2.988925 -6.909495 2.042919 4.942831 0.290289 -2.941516 -15.999105 3.991059 -4.201811 9.042436 -0.517800 -1.920700 4.628300 -6.879579 -13.504356 2.378025 -72.109374 -11.728503 39.482346 23.275993 -30.981832 -10.006674 -3.018845 -1.106419 -15.972510 33.858516 44.132611 26.973300 -7.125000 0.000000 0.000000 -0.637300 78.852400 -0.502100 2.826636 13.240376 2.185882 85.955387 -0.274910 18.673481 -29.449551 40.679649 -9.899627 -0.516392 -2.964956 19.982849 -22.815238 5.235935 -3.625500 7.125000 0.000000 0.000000 2.506300 -20.822200 1.453100 
-13.946534 17.913444 -0.676060 -65.564655 82.552306 -50.957165 0.744303 3.405342 0.596208 -12.572736 -4.973563 -13.791436 -0.320606 2.938453 9.733944 0.486389 0.219367 -8.841633 1.788700 8.411200 23.970300 -4.997394 -4.214551 -0.336309 28.995294 14.304570 -18.917725 -1.230657 -5.961485 20.207867 0.447091 -6.493327 -11.063514 -0.053300 1.490200 -4.098700 7.479026 3.880937 -5.492959 0.653872 4.325156 -3.152590 -6.970509 2.210291 5.751534 0.449533 -3.004157 -16.057931 3.780026 -4.291254 8.930795 -0.617900 -1.977300 4.554600 -6.900983 -13.453774 2.389256 -71.961138 -12.000678 39.984017 24.350821 -31.868854 -10.498070 -2.981390 -1.175922 -16.561271 33.572782 44.576495 26.935800 -7.125000 0.000000 0.000000 -2.206600 79.226400 -1.755400 2.863585 13.138174 2.177401 85.869896 0.153407 20.033677 -30.640377 41.588910 -10.444178 -0.323309 -3.079166 18.182357 -22.624581 3.614169 -2.952100 7.125000 0.000000 0.000000 2.514800 -22.512600 1.361600 
-13.885101 17.944720 -0.624000 -59.230663 82.486665 -43.236322 0.652858 3.425900 0.577994 -12.902000 -4.521426 -15.434404 -0.362525 2.972061 9.667864 0.136315 1.637809 -8.066470 1.132300 6.758400 19.001500 -5.176314 -4.075730 -0.317226 28.602720 15.521307 -19.441669 -1.085957 -5.606177 19.129096 0.500700 -6.718019 -10.673473 -0.033700 1.185200 -3.258600 7.073823 4.301642 -7.423144 0.526720 4.745509 -3.383977 -6.907632 2.424217 6.189977 0.425587 -3.068970 -16.008524 3.698364 -4.357628 9.054663 -0.644100 -2.009200 4.560400 -6.910614 -13.411013 2.365511 -72.033122 -11.889736 40.268886 25.235966 -32.619995 -10.910359 -2.946744 -1.196517 -16.803717 33.395875 44.825025 26.884600 -7.125000 0.000000 0.000000 -3.211000 79.420400 -2.567200 2.855483 13.107013 2.169607 85.846906 0.223962 20.883826 -31.155296 42.020750 -10.702211 -0.300436 -3.117506 17.592501 -23.047547 3.521398 -2.994100 7.125000 0.000000 0.000000 2.199900 -22.534800 1.189700 
-13.858002 17.960817 -0.583759 -58.209715 82.218292 -41.871359 0.681194 3.424075 0.563735 -12.886685 -3.787453 -16.182540 -0.381833 3.000150 9.678425 -0.187499 2.928028 -7.100697 0.472700 4.409500 12.231600 -5.229615 -4.074841 -0.296853 28.916856 15.794841 -19.230702 -1.002645 -5.348368 18.421522 0.518399 -6.720588 -10.384835 -0.060600 1.588500 -4.369600 7.481895 4.513417 -7.726225 0.482729 4.959939 -3.531897 -7.156931 2.536447 6.041344 0.298926 -3.146573 -16.033540 3.782307 -4.444178 9.270981 -0.591500 -2.040600 4.646100 -6.892941 -13.404772 2.340914 -72.236705 -11.792680 40.362606 25.856129 -33.121998 -11.193274 -2.930091 -1.166913 -16.663602 33.374804 44.807499 26.838600 -7.125000 0.000000 0.000000 -3.275300 79.384000 -2.616200 2.825162 13.111786 2.160090 85.946343 0.271007 21.332736 -31.498537 42.311136 -10.871613 -0.280010 -3.148663 17.296100 -23.250036 3.371111 -2.974000 7.125000 0.000000 0.000000 2.037800 -22.648300 1.096700 
-13.837117 17.973959 -0.541581 -57.776302 82.049912 -41.303968 0.749396 3.428001 0.516099 -13.195816 -2.392925 -17.125445 -0.378814 3.049239 9.745409 -0.641178 4.720672 -4.898250 0.014400 -0.774900 -2.129800 -5.267053 -4.093533 -0.289845 29.214959 15.861305 -18.895510 -0.928094 -5.125163 17.822073 0.539751 -6.816572 -10.296085 -0.116200 2.197900 -6.052900 7.822462 4.674305 -7.963126 0.464237 5.105872 -3.526149 -7.293309 2.627470 6.238486 0.204034 -3.274291 -16.278317 3.808061 -4.607672 9.293966 -0.572400 -2.121700 4.694800 -6.891708 -13.397008 2.338357 -72.487594 -12.090207 40.272782 26.216615 -33.383133 -11.356845 -2.926759 -1.133390 -16.446196 33.263825 44.764698 26.714400 -7.125000 0.000000 0.000000 -3.463700 79.290100 -2.760100 2.841452 13.085139 2.177443 85.840169 0.257571 22.041401 -32.397239 42.980279 -11.357911 -0.142124 -3.228881 16.609555 -23.578380 1.903814 -2.403600 7.125000 0.000000 0.000000 1.676500 -24.161500 0.843800 
-13.817658 17.982822 -0.499608 -56.159600 81.971872 -39.616872 0.716330 3.440949 0.531999 -13.056712 -2.904034 -17.059283 -0.395235 3.119887 9.905103 -0.780118 5.412936 -5.287464 0.032300 -1.160600 -3.190700 -5.297855 -4.091780 -0.318928 29.328580 15.531644 -18.674098 -0.885725 -4.927832 17.306283 0.497263 -6.441900 -10.089104 -0.155600 2.541300 -7.004300 7.938504 4.782199 -8.005637 0.430846 5.236927 -3.566871 -7.391233 2.699494 6.189591 0.416001 -3.355491 -16.248849 3.535351 -4.731717 9.094707 -0.705800 -2.200600 4.613900 -6.869441 -13.387548 2.316562 -72.834828 -12.086697 39.983460 26.485269 -33.598278 -11.484009 -2.917850 -1.102501 -16.360677 33.101470 44.699534 26.536200 -7.125000 0.000000 0.000000 -3.735900 79.156400 -2.967000 2.846912 13.088432 2.187413 85.709625 0.262064 22.501314 -32.792001 43.257743 -11.549566 -0.112569 -3.245262 16.450403 -23.626860 1.652228 -2.303600 7.125000 0.000000 0.000000 1.617600 -24.419900 0.804400 
-13.800951 17.991889 -0.456717 -54.783716 81.946448 -38.123838 0.688406 3.451719 0.545001 -12.967106 -3.383104 -17.096981 -0.406163 3.197662 10.088218 -0.923516 6.102039 -5.534268 0.057900 -1.552900 -4.271600 -5.322289 -4.105074 -0.342273 29.440665 14.860348 -18.715842 -0.880700 -4.776535 16.910882 0.404002 -5.609580 -9.594556 -0.164900 2.616300 -7.212100 7.978867 4.824419 -8.064529 0.413834 5.289886 -3.632326 -7.432262 2.724320 6.083559 0.447020 -3.364129 -16.327290 3.512483 -4.746491 9.161508 -0.720900 -2.204900 4.657200 -6.843160 -13.371566 2.282536 -73.201365 -11.819067 39.605034 26.801253 -33.879549 -11.652748 -2.894591 -1.083869 -16.494162 33.175114 44.717005 26.578600 -7.125000 0.000000 0.000000 -3.638300 79.180100 -2.891100 2.837090 13.087210 2.188407 85.523331 0.507135 22.888880 -32.690030 43.174719 -11.476364 -0.124596 -3.237554 16.469498 -23.608126 1.750580 -2.342300 7.125000 0.000000 0.000000 1.642800 -24.319300 0.820800 
-13.780269 17.998002 -0.408020 -54.576844 81.993021 -37.884335 0.684408 3.454406 0.553389 -12.808014 -3.839402 -17.066747 -0.403822 3.292622 10.337303 -1.014250 6.537605 -5.756450 0.066000 -1.657000 -4.558600 -5.327869 -4.136420 -0.363224 29.642722 14.155080 -18.623844 -0.873254 -4.616679 16.501378 0.334719 -4.892564 -9.033914 -0.130300 2.326500 -6.409000 7.960649 4.786397 -8.152128 0.455899 5.226003 -3.661498 -7.303853 2.691272 6.053089 0.414307 -3.356659 -16.353934 3.484247 -4.731991 9.110854 -0.726900 -2.202800 4.650100 -6.812778 -13.364957 2.251226 -73.594073 -11.421609 39.278983 27.125585 -34.192569 -11.840922 -2.860949 -1.084042 -16.810321 33.350498 44.901215 26.773600 -7.125000 0.000000 0.000000 -3.647600 79.402000 -2.915100 2.852215 13.079072 2.197503 85.235595 0.654495 23.266102 -32.660973 43.119182 -11.433760 -0.125578 -3.224655 16.581415 -23.474690 1.725416 -2.308500 7.125000 0.000000 0.000000 1.741500 -24.372600 0.868000 
-13.753679 17.998613 -0.353617 -55.375756 82.064271 -38.729238 0.701650 3.447667 0.560299 -12.570413 -4.051622 -17.011549 -0.387431 3.393275 10.614813 -1.006197 6.522857 -6.000178 0.050900 -1.455700 -4.003700 -5.315022 -4.170724 -0.377551 29.917393 13.687155 -18.333520 -0.853633 -4.466725 16.127116 0.302841 -4.513004 -8.694807 -0.082800 1.856200 -5.108500 7.925253 4.723228 -8.287762 0.528752 5.116258 -3.662004 -7.081536 2.636290 6.094992 0.174505 -3.423418 -16.318741 3.661951 -4.804161 9.060876 -0.630800 -2.237600 4.637300 -6.789388 -13.372236 2.225544 -73.970835 -11.013940 39.066644 27.272383 -34.366026 -11.927228 -2.837058 -1.085248 -17.078900 33.300221 45.033134 26.769900 -7.125000 0.000000 0.000000 -4.080700 79.502600 -3.269700 2.876289 13.063295 2.211750 84.957105 0.687594 23.538056 -32.705664 43.111046 -11.435199 -0.120105 -3.212827 16.677896 -23.338711 1.654058 -2.254400 7.125000 0.000000 0.000000 1.837200 -24.476700 0.911300 
